# xmcd
#
# Track frame offsets:
#	150
#	12278
#	27982
#	40776
#	53325
#	64035
#	75137
#	88530
#	106394
#	117878
#	133488
#	146407
#
# Disc length: 2120 seconds
# Revision: 0
# Processed by: cddbd v1.5.2PL0 Copyright (c) Steve Scherf et al.
# Submitted via: dBpowerAMP V12.0
#
DISCID=8f08460c
DTITLE=New River Line - I'm Moving on
DYEAR=2010
DGENRE=Country
TTITLE0=Long Haul Trucker's Blues
TTITLE1=You Can't Run from the Devil
TTITLE2=Broken Man
TTITLE3=Forever Till the End
TTITLE4=The Love We'd Once Known
TTITLE5=Home "the Soldier's Song"
TTITLE6=Roscoe P. Coaltrain
TTITLE7=I'm Rich Don't You See
TTITLE8=I'm Thinking You Don't Love Me Anymore
TTITLE9=It's All Over Now But the Crying
TTITLE10=Old Kentucky Farmers
TTITLE11=I'm Moving on
EXTD=
EXTT0=
EXTT1=
EXTT2=
EXTT3=
EXTT4=
EXTT5=
EXTT6=
EXTT7=
EXTT8=
EXTT9=
EXTT10=
EXTT11=
PLAYORDER=
